<?xml version="1.0" encoding="UTF-8" standalone="no"?>
<svg width="640px" height="427px" viewBox="0 0 640 427" version="1.1" xmlns="http://www.w3.org/2000/svg" xmlns:xlink="http://www.w3.org/1999/xlink">
    <!-- Generator: Sketch 39.1 (31720) - http://www.bohemiancoding.com/sketch -->
    <title>fuck-you-cuz-science</title>
    <desc>Created with Sketch.</desc>
    <defs></defs>
    <g id="Page-1" stroke="none" stroke-width="1" fill="none" fill-rule="evenodd">
        <g id="fuck-you-cuz-science">
            <path d="M23.22,61.57 L92.91,61.57 L92.91,79.28 L89.575,79.28 C88.9616636,78.1299942 88.3483364,77.0566716 87.735,76.06 C87.1216636,75.0633284 86.5083364,74.1433376 85.895,73.3 C84.8983284,71.9199931 83.8633387,70.7700046 82.79,69.85 C81.7166613,68.9299954 80.5666728,68.2016693 79.34,67.665 C79.0333318,67.5883329 78.7650012,67.4925006 78.535,67.3775 C78.3049989,67.2624994 78.0366682,67.1666671 77.73,67.09 C76.6566613,66.7833318 75.3150081,66.591667 73.705,66.515 C72.094992,66.438333 69.3350195,66.4 65.425,66.4 L48.175,66.285 L48.175,95.725 L65.195,95.725 C70.4083594,95.801667 73.9349908,95.1883398 75.775,93.885 C77.6150092,92.5816602 78.8033306,89.8600207 79.34,85.72 L83.94,85.605 L83.94,113.895 L79.34,113.895 C78.8033306,110.904985 78.0941711,108.605008 77.2125,106.995 C76.3308289,105.384992 75.085008,104.081672 73.475,103.085 C72.2483272,102.394997 70.9450069,101.877502 69.565,101.5325 C68.1849931,101.187498 66.6133421,101.015 64.85,101.015 L48.175,100.9 L48.175,122.405 C48.175,127.311691 48.9799919,130.761657 50.59,132.755 C52.2000081,134.748343 54.9983134,135.745 58.985,135.745 L61.975,135.63 L61.975,140 L23.91,140 L23.91,135.63 L25.405,135.63 C29.3150196,135.706667 32.0749919,134.748343 33.685,132.755 C35.295008,130.761657 36.1,127.350024 36.1,122.52 L36.1,79.165 C36.1,74.4116429 35.295008,71.0383433 33.685,69.045 C32.0749919,67.0516567 29.3150196,66.055 25.405,66.055 L23.22,65.94 L23.22,61.57 Z M97.855,61.57 L135.575,61.57 L135.575,65.94 L134.31,65.94 C129.786644,66.0166671 126.700842,66.9941573 125.0525,68.8725 C123.404158,70.7508427 122.58,74.2199747 122.58,79.28 L122.58,110.1 C122.58,115.236692 123.020829,119.146653 123.9025,121.83 C124.784171,124.513347 126.413321,126.851657 128.79,128.845 C131.013344,130.761676 133.619985,132.199162 136.61,133.1575 C139.600015,134.115838 142.896649,134.595 146.5,134.595 C151.023356,134.595 154.952483,133.924173 158.2875,132.5825 C161.622517,131.240827 164.516654,129.151681 166.97,126.315 C168.043339,125.01166 168.944163,123.689173 169.6725,122.3475 C170.400837,121.005827 170.956665,119.645007 171.34,118.265 C171.570001,117.344995 171.780832,116.195007 171.9725,114.815 C172.164168,113.434993 172.298333,112.016674 172.375,110.56 C172.451667,109.79333 172.509166,109.026671 172.5475,108.26 C172.585834,107.49333 172.605,106.765003 172.605,106.075 L172.605,105.5 L172.26,83.535 L172.26,78.36 C172.183333,74.2966464 171.11001,71.2300103 169.04,69.16 C166.96999,67.0899897 163.865021,66.055 159.725,66.055 L158.69,65.94 L158.69,61.57 L189.625,61.57 L189.625,65.94 L189.28,65.94 C185.446647,66.0166671 182.533343,67.1091561 180.54,69.2175 C178.546657,71.3258439 177.55,74.4116464 177.55,78.475 L177.55,83.535 L177.55,105.96 C177.55,109.180016 177.473334,111.76749 177.32,113.7225 C177.166666,115.67751 176.936668,117.536658 176.63,119.3 C176.553333,119.606668 176.476667,119.932498 176.4,120.2775 C176.323333,120.622502 176.246667,120.948332 176.17,121.255 C175.709998,123.248343 175.000838,125.145824 174.0425,126.9475 C173.084162,128.749176 171.95334,130.378326 170.65,131.835 C167.583318,135.131683 163.922521,137.546659 159.6675,139.08 C155.412479,140.613341 150.218364,141.38 144.085,141.38 C135.651624,141.38 128.560029,139.827516 122.81,136.7225 C117.059971,133.617484 113.341675,129.343361 111.655,123.9 C111.578333,123.516665 111.482501,123.133335 111.3675,122.75 C111.252499,122.366665 111.156667,122.021668 111.08,121.715 C110.773332,120.41166 110.581667,118.955008 110.505,117.345 C110.428333,115.734992 110.39,113.320016 110.39,110.1 L110.39,79.165 C110.39,74.4116429 109.585008,71.0383433 107.975,69.045 C106.364992,67.0516567 103.643353,66.055 99.81,66.055 L97.855,65.94 L97.855,61.57 Z M273.575,83.19 L269.895,83.19 C267.28832,77.4399712 263.531691,72.8591837 258.625,69.4475 C253.718309,66.0358163 248.390029,64.33 242.64,64.33 C233.593288,64.33 226.310028,67.5883007 220.79,74.105 C215.269972,80.6216993 212.51,89.1699471 212.51,99.75 C212.51,110.713388 215.442471,119.606633 221.3075,126.43 C227.172529,133.253367 234.819953,136.665 244.25,136.665 C248.006685,136.665 251.494984,136.109172 254.715,134.9975 C257.935016,133.885828 260.656656,132.29501 262.88,130.225 C264.643342,128.691659 266.061661,126.89001 267.135,124.82 C268.208339,122.74999 269.12833,120.220015 269.895,117.23 L274.15,117.115 L273.575,135.17 C271.274989,136.166672 268.687514,137.067496 265.8125,137.8725 C262.937486,138.677504 260.043348,139.348331 257.13,139.885 C254.446653,140.345002 251.840013,140.709165 249.31,140.9775 C246.779987,141.245835 244.441677,141.38 242.295,141.38 C229.338269,141.38 218.796707,137.700037 210.67,130.34 C202.543293,122.979963 198.48,113.435059 198.48,101.705 C198.48,89.438272 202.734957,79.3567061 211.245,71.46 C219.755043,63.5632938 230.6416,59.615 243.905,59.615 C248.198355,59.615 252.568311,60.0749954 257.015,60.995 C261.461689,61.9150046 266.061643,63.2949908 270.815,65.135 L273.575,83.19 Z M284.615,61.57 L320.955,61.57 L320.955,65.94 L319.575,65.94 C315.66498,66.0166671 312.905008,67.0516567 311.295,69.045 C309.684992,71.0383433 308.88,74.4499758 308.88,79.28 L308.88,122.405 C308.88,127.311691 309.684992,130.761657 311.295,132.755 C312.905008,134.748343 315.66498,135.745 319.575,135.745 L321.645,135.63 L321.645,140 L284.615,140 L284.615,135.63 L286.11,135.63 C290.02002,135.706667 292.779992,134.748343 294.39,132.755 C296.000008,130.761657 296.805,127.350024 296.805,122.52 L296.805,79.165 C296.805,74.4116429 296.000008,71.0383433 294.39,69.045 C292.779992,67.0516567 290.02002,66.055 286.11,66.055 L284.615,65.94 L284.615,61.57 Z M333.95,61.57 L366.38,61.57 L366.38,65.94 C365.229994,66.0933341 364.252504,66.2466659 363.4475,66.4 C362.642496,66.5533341 361.895003,66.7066659 361.205,66.86 C360.821665,67.0133341 360.419169,67.1666659 359.9975,67.32 C359.575831,67.4733341 359.135002,67.6266659 358.675,67.78 C358.598333,67.78 358.521667,67.7991665 358.445,67.8375 C358.368333,67.8758335 358.291667,67.933333 358.215,68.01 C357.678331,68.1633341 357.180002,68.3549989 356.72,68.585 C356.259998,68.8150012 355.800002,69.0833318 355.34,69.39 C353.806659,70.2333375 352.120009,71.421659 350.28,72.955 C348.439991,74.488341 345.795017,76.8649839 342.345,80.085 C341.808331,80.5450023 341.290836,81.0049977 340.7925,81.465 C340.294164,81.9250023 339.815002,82.3849977 339.355,82.845 C338.894998,83.3050023 338.415836,83.7266647 337.9175,84.11 C337.419164,84.4933352 336.940002,84.9149977 336.48,85.375 C334.793325,86.7550069 333.049176,88.1924925 331.2475,89.6875 C329.445824,91.1825075 327.433344,92.8116579 325.21,94.575 L323.025,96.07 C323.868338,96.8366705 324.61583,97.4883307 325.2675,98.025 C325.91917,98.5616693 326.551664,99.0599977 327.165,99.52 C327.241667,99.596667 327.318333,99.6541665 327.395,99.6925 C327.471667,99.7308335 327.51,99.7883329 327.51,99.865 C328.660006,100.785005 329.848327,101.781661 331.075,102.855 C332.301673,103.928339 333.911657,105.384991 335.905,107.225 L348.785,118.84 C352.235017,121.983349 355.339986,124.647489 358.1,126.8325 C360.860014,129.017511 363.121658,130.646661 364.885,131.72 C365.805005,132.180002 366.744162,132.639998 367.7025,133.1 C368.660838,133.560002 369.676661,133.981665 370.75,134.365 C371.363336,134.595001 371.861665,134.767499 372.245,134.8825 C372.628335,134.997501 372.973332,135.093333 373.28,135.17 C373.433334,135.246667 373.605832,135.304166 373.7975,135.3425 C373.989168,135.380834 374.161666,135.4 374.315,135.4 C374.468334,135.4 374.583333,135.419166 374.66,135.4575 C374.736667,135.495834 374.851666,135.515 375.005,135.515 L375.005,140 L354.88,140 C353.806661,139.23333 352.867504,138.52417 352.0625,137.8725 C351.257496,137.22083 350.510003,136.588336 349.82,135.975 C349.666666,135.898333 349.551667,135.821667 349.475,135.745 C349.398333,135.668333 349.321667,135.553334 349.245,135.4 C348.631664,134.939998 347.99917,134.422503 347.3475,133.8475 C346.69583,133.272497 345.986671,132.601671 345.22,131.835 L333.72,120.795 L321.76,110.1 L311.295,101.015 L309.8,99.635 L311.525,98.485 C314.975017,96.1083215 317.754156,94.1341745 319.8625,92.5625 C321.970844,90.9908255 323.906658,89.5150069 325.67,88.135 C325.900001,87.9816659 326.129999,87.8091676 326.36,87.6175 C326.590001,87.4258324 326.781666,87.2533341 326.935,87.1 C327.855005,86.4099966 328.755829,85.6816705 329.6375,84.915 C330.519171,84.1483295 331.458328,83.3050046 332.455,82.385 C333.835007,81.0816602 335.099994,79.8358393 336.25,78.6475 C337.400006,77.4591607 338.434995,76.2516728 339.355,75.025 C339.585001,74.6416648 339.814999,74.2391688 340.045,73.8175 C340.275001,73.3958312 340.466666,72.9933352 340.62,72.61 C340.696667,72.2266647 340.773333,71.8625017 340.85,71.5175 C340.926667,71.1724983 340.965,70.8466682 340.965,70.54 C340.965,69.083326 340.409172,67.9716705 339.2975,67.205 C338.185828,66.4383295 336.59501,66.055 334.525,66.055 L333.95,65.94 L333.95,61.57 Z M67.38,232.11 L67.38,247.405 C67.38,252.311691 68.1849919,255.761657 69.795,257.755 C71.4050081,259.748343 74.1266475,260.745 77.96,260.745 L78.88,260.63 L78.88,265 L43.46,265 L43.46,260.63 L44.61,260.63 C48.4433525,260.706667 51.164992,259.748343 52.775,257.755 C54.3850081,255.761657 55.19,252.350024 55.19,247.52 L55.19,232.11 L32.65,199.105 C31.7299954,197.878327 30.9250035,196.805005 30.235,195.885 C29.5449966,194.964995 28.8933364,194.236669 28.28,193.7 C27.2833284,192.856662 26.2291722,192.262502 25.1175,191.9175 C24.0058278,191.572498 22.5683421,191.285001 20.805,191.055 L20.805,186.57 L55.19,186.57 L55.19,190.94 C51.7399828,191.246668 49.4016728,191.72583 48.175,192.3775 C46.9483272,193.02917 46.335,194.236658 46.335,196 C46.335,196.766671 46.4883318,197.53333 46.795,198.3 C47.1016682,199.066671 47.5233307,199.871662 48.06,200.715 L65.54,226.015 L78.305,207.27 C79.5316728,205.583325 80.4133307,204.126673 80.95,202.9 C81.4866693,201.673327 81.8316659,200.523339 81.985,199.45 L81.985,198.99 L81.985,198.53 C81.985,196.153321 81.3333399,194.390006 80.03,193.24 C78.7266602,192.089994 76.4650161,191.361668 73.245,191.055 L73.245,186.57 L101.65,186.57 L101.65,190.94 C100.729995,191.093334 99.8866705,191.304165 99.12,191.5725 C98.3533295,191.840835 97.6250035,192.204998 96.935,192.665 C95.7083272,193.355003 94.4433399,194.447493 93.14,195.9425 C91.8366602,197.437507 90.2650092,199.526653 88.425,202.21 L67.38,232.11 Z M108.665,227.28 C108.665,215.089939 112.498295,205.046706 120.165,197.15 C127.831705,189.253294 137.606607,185.305 149.49,185.305 C161.143392,185.305 170.803295,189.195794 178.47,196.9775 C186.136705,204.759206 189.97,214.514941 189.97,226.245 C189.97,237.591723 185.925874,247.117461 177.8375,254.8225 C169.749126,262.527539 159.686727,266.38 147.65,266.38 C136.609945,266.38 127.352537,262.661704 119.8775,255.225 C112.402463,247.788296 108.665,238.511722 108.665,227.395 L108.665,227.28 Z M122.465,223.83 C123.078336,235.25339 125.991641,244.434132 131.205,251.3725 C136.418359,258.310868 143.011627,261.78 150.985,261.78 C158.575038,261.78 164.669977,258.905029 169.27,253.155 C173.870023,247.404971 176.17,239.891713 176.17,230.615 C176.17,225.171639 175.441674,219.862526 173.985,214.6875 C172.528326,209.512474 170.49668,204.97002 167.89,201.06 C165.589989,197.609983 162.600018,194.90751 158.92,192.9525 C155.239982,190.99749 151.330021,190.02 147.19,190.02 C143.893317,190.02 140.769181,190.67166 137.8175,191.975 C134.865819,193.27834 132.240011,195.23332 129.94,197.84 C127.33332,200.676681 125.416673,203.973315 124.19,207.73 C122.963327,211.486685 122.35,215.971641 122.35,221.185 L122.35,222.565 C122.35,223.025002 122.388333,223.484998 122.465,223.945 L122.465,223.83 Z M198.595,186.57 L236.315,186.57 L236.315,190.94 L235.05,190.94 C230.526644,191.016667 227.440842,191.994157 225.7925,193.8725 C224.144158,195.750843 223.32,199.219975 223.32,204.28 L223.32,235.1 C223.32,240.236692 223.760829,244.146653 224.6425,246.83 C225.524171,249.513347 227.153321,251.851657 229.53,253.845 C231.753344,255.761676 234.359985,257.199162 237.35,258.1575 C240.340015,259.115838 243.636649,259.595 247.24,259.595 C251.763356,259.595 255.692483,258.924173 259.0275,257.5825 C262.362517,256.240827 265.256654,254.151681 267.71,251.315 C268.783339,250.01166 269.684163,248.689173 270.4125,247.3475 C271.140837,246.005827 271.696665,244.645007 272.08,243.265 C272.310001,242.344995 272.520832,241.195007 272.7125,239.815 C272.904168,238.434993 273.038333,237.016674 273.115,235.56 C273.191667,234.793329 273.249166,234.02667 273.2875,233.26 C273.325834,232.49333 273.345,231.765003 273.345,231.075 L273.345,230.5 L273,208.535 L273,203.36 C272.923333,199.296646 271.85001,196.23001 269.78,194.16 C267.70999,192.08999 264.605021,191.055 260.465,191.055 L259.43,190.94 L259.43,186.57 L290.365,186.57 L290.365,190.94 L290.02,190.94 C286.186647,191.016667 283.273343,192.109156 281.28,194.2175 C279.286657,196.325844 278.29,199.411646 278.29,203.475 L278.29,208.535 L278.29,230.96 C278.29,234.180016 278.213334,236.76749 278.06,238.7225 C277.906666,240.67751 277.676668,242.536658 277.37,244.3 C277.293333,244.606668 277.216667,244.932498 277.14,245.2775 C277.063333,245.622502 276.986667,245.948332 276.91,246.255 C276.449998,248.248343 275.740838,250.145824 274.7825,251.9475 C273.824162,253.749176 272.69334,255.378326 271.39,256.835 C268.323318,260.131683 264.662521,262.546659 260.4075,264.08 C256.152479,265.613341 250.958364,266.38 244.825,266.38 C236.391625,266.38 229.300029,264.827516 223.55,261.7225 C217.799971,258.617484 214.081675,254.343361 212.395,248.9 C212.318333,248.516665 212.222501,248.133335 212.1075,247.75 C211.992499,247.366665 211.896667,247.021668 211.82,246.715 C211.513332,245.41166 211.321667,243.955008 211.245,242.345 C211.168333,240.734992 211.13,238.320016 211.13,235.1 L211.13,204.165 C211.13,199.411643 210.325008,196.038343 208.715,194.045 C207.104992,192.051657 204.383353,191.055 200.55,191.055 L198.595,190.94 L198.595,186.57 Z M295.77,282.595 L295.77,278.34 C301.136694,277.803331 305.18082,276.55751 307.9025,274.6025 C310.62418,272.64749 311.985,269.98335 311.985,266.61 C311.985,264.463323 311.640003,262.872505 310.95,261.8375 C310.259997,260.802495 309.071675,260.246667 307.385,260.17 L305.89,260.055 C303.896657,259.978333 302.305839,259.365006 301.1175,258.215 C299.929161,257.064994 299.335,255.531676 299.335,253.615 C299.335,251.391656 300.04416,249.62834 301.4625,248.325 C302.88084,247.02166 304.663323,246.37 306.81,246.37 C310.18335,246.37 313.019989,247.979984 315.32,251.2 C317.620012,254.420016 318.77,258.406643 318.77,263.16 C318.77,269.216697 316.75752,273.950816 312.7325,277.3625 C308.70748,280.774184 303.05337,282.518333 295.77,282.595 L295.77,282.595 Z M439.865,208.19 L436.185,208.19 C433.57832,202.439971 429.821691,197.859184 424.915,194.4475 C420.008309,191.035816 414.680029,189.33 408.93,189.33 C399.883288,189.33 392.600028,192.588301 387.08,199.105 C381.559972,205.621699 378.8,214.169947 378.8,224.75 C378.8,235.713388 381.732471,244.606633 387.5975,251.43 C393.462529,258.253367 401.109953,261.665 410.54,261.665 C414.296685,261.665 417.784984,261.109172 421.005,259.9975 C424.225016,258.885828 426.946656,257.29501 429.17,255.225 C430.933342,253.691659 432.351661,251.89001 433.425,249.82 C434.498339,247.74999 435.41833,245.220015 436.185,242.23 L440.44,242.115 L439.865,260.17 C437.564989,261.166672 434.977514,262.067496 432.1025,262.8725 C429.227486,263.677504 426.333348,264.348331 423.42,264.885 C420.736653,265.345002 418.130013,265.709165 415.6,265.9775 C413.069987,266.245835 410.731677,266.38 408.585,266.38 C395.628269,266.38 385.086707,262.700037 376.96,255.34 C368.833293,247.979963 364.77,238.435059 364.77,226.705 C364.77,214.438272 369.024957,204.356706 377.535,196.46 C386.045043,188.563294 396.9316,184.615 410.195,184.615 C414.488355,184.615 418.858311,185.074995 423.305,185.995 C427.751689,186.915005 432.351643,188.294991 437.105,190.135 L439.865,208.19 Z M449.755,186.57 L487.475,186.57 L487.475,190.94 L486.21,190.94 C481.686644,191.016667 478.600842,191.994157 476.9525,193.8725 C475.304158,195.750843 474.48,199.219975 474.48,204.28 L474.48,235.1 C474.48,240.236692 474.920829,244.146653 475.8025,246.83 C476.684171,249.513347 478.313321,251.851657 480.69,253.845 C482.913344,255.761676 485.519985,257.199162 488.51,258.1575 C491.500015,259.115838 494.796649,259.595 498.4,259.595 C502.923356,259.595 506.852483,258.924173 510.1875,257.5825 C513.522517,256.240827 516.416654,254.151681 518.87,251.315 C519.943339,250.01166 520.844163,248.689173 521.5725,247.3475 C522.300837,246.005827 522.856665,244.645007 523.24,243.265 C523.470001,242.344995 523.680832,241.195007 523.8725,239.815 C524.064168,238.434993 524.198333,237.016674 524.275,235.56 C524.351667,234.793329 524.409166,234.02667 524.4475,233.26 C524.485834,232.49333 524.505,231.765003 524.505,231.075 L524.505,230.5 L524.16,208.535 L524.16,203.36 C524.083333,199.296646 523.01001,196.23001 520.94,194.16 C518.86999,192.08999 515.765021,191.055 511.625,191.055 L510.59,190.94 L510.59,186.57 L541.525,186.57 L541.525,190.94 L541.18,190.94 C537.346648,191.016667 534.433343,192.109156 532.44,194.2175 C530.446657,196.325844 529.45,199.411646 529.45,203.475 L529.45,208.535 L529.45,230.96 C529.45,234.180016 529.373334,236.76749 529.22,238.7225 C529.066666,240.67751 528.836668,242.536658 528.53,244.3 C528.453333,244.606668 528.376667,244.932498 528.3,245.2775 C528.223333,245.622502 528.146667,245.948332 528.07,246.255 C527.609998,248.248343 526.900838,250.145824 525.9425,251.9475 C524.984162,253.749176 523.85334,255.378326 522.55,256.835 C519.483318,260.131683 515.822521,262.546659 511.5675,264.08 C507.312479,265.613341 502.118364,266.38 495.985,266.38 C487.551625,266.38 480.460029,264.827516 474.71,261.7225 C468.959971,258.617484 465.241675,254.343361 463.555,248.9 C463.478333,248.516665 463.382501,248.133335 463.2675,247.75 C463.152499,247.366665 463.056667,247.021668 462.98,246.715 C462.673332,245.41166 462.481667,243.955008 462.405,242.345 C462.328333,240.734992 462.29,238.320016 462.29,235.1 L462.29,204.165 C462.29,199.411643 461.485008,196.038343 459.875,194.045 C458.264992,192.051657 455.543353,191.055 451.71,191.055 L449.755,190.94 L449.755,186.57 Z M617.195,244.645 L612.02,265 L545.895,265 L545.895,261.665 L598.335,191.285 L574.99,191.285 C571.156647,191.361667 568.20501,191.764163 566.135,192.4925 C564.06499,193.220837 562.148342,194.61999 560.385,196.69 C560.231666,196.843334 560.097501,196.996666 559.9825,197.15 C559.867499,197.303334 559.733334,197.456666 559.58,197.61 C559.273332,198.070002 558.985835,198.472498 558.7175,198.8175 C558.449165,199.162502 558.200001,199.526665 557.97,199.91 C557.893333,200.140001 557.778334,200.369999 557.625,200.6 C557.471666,200.830001 557.318334,201.059999 557.165,201.29 C557.011666,201.750002 556.820001,202.229164 556.59,202.7275 C556.359999,203.225836 556.091668,203.819997 555.785,204.51 L551.645,204.395 L551.645,186.57 L614.435,186.57 L614.435,189.675 L561.535,260.285 L584.42,260.285 C587.870017,260.361667 590.610823,260.285001 592.6425,260.055 C594.674177,259.824999 596.571658,259.32667 598.335,258.56 C598.565001,258.483333 598.775832,258.406667 598.9675,258.33 C599.159168,258.253333 599.331666,258.176667 599.485,258.1 C600.558339,257.563331 601.593328,256.950003 602.59,256.26 C603.586672,255.569997 604.583328,254.765005 605.58,253.845 C606.270003,253.154997 606.959997,252.407504 607.65,251.6025 C608.340003,250.797496 609.068329,249.896672 609.835,248.9 L612.825,244.645 L617.195,244.645 Z M26.44,385.86 L25.865,366.08 L31.385,366.08 C32.3050046,372.443365 34.6049816,377.330816 38.285,380.7425 C41.9650184,384.154184 46.6799713,385.86 52.43,385.86 C57.1833571,385.86 61.2083169,384.614179 64.505,382.1225 C67.8016832,379.630821 69.45,376.621684 69.45,373.095 C69.45,370.948323 68.7600069,368.859177 67.38,366.8275 C65.9999931,364.795823 63.9300138,362.898342 61.17,361.135 C59.7899931,360.138328 58.2375086,359.122505 56.5125,358.0875 C54.7874914,357.052495 52.8900104,355.921673 50.82,354.695 C46.296644,352.011653 42.6741803,349.730843 39.9525,347.8525 C37.2308197,345.974157 35.0650081,344.191675 33.455,342.505 C32.8416636,341.891664 32.2858358,341.25917 31.7875,340.6075 C31.2891642,339.95583 30.8100023,339.285003 30.35,338.595 C29.5833295,337.368327 29.0083353,336.026674 28.625,334.57 C28.2416647,333.113326 28.05,331.618341 28.05,330.085 C28.05,324.181637 30.5033088,319.409185 35.41,315.7675 C40.3166912,312.125815 46.7566268,310.305 54.73,310.305 C55.8800058,310.305 56.9724948,310.343333 58.0075,310.42 C59.0425052,310.496667 60.0966613,310.611666 61.17,310.765 C62.780008,310.995001 64.4283249,311.339998 66.115,311.8 C67.8016751,312.260002 69.6799897,312.87333 71.75,313.64 C72.5166705,313.946668 73.1683307,314.195832 73.705,314.3875 C74.2416694,314.579168 74.7016648,314.789999 75.085,315.02 C75.2383341,315.096667 75.3916659,315.154166 75.545,315.1925 C75.6983341,315.230834 75.8516659,315.288333 76.005,315.365 C76.4650023,315.595001 76.9058312,315.824999 77.3275,316.055 C77.7491688,316.285001 78.2283307,316.553332 78.765,316.86 L78.765,333.65 L73.705,333.65 C73.2449977,327.976638 71.2325178,323.45335 67.6675,320.08 C64.1024822,316.70665 59.4833617,315.02 53.81,315.02 C49.8233134,315.02 46.4308473,316.074156 43.6325,318.1825 C40.8341527,320.290844 39.435,322.839985 39.435,325.83 C39.435,327.976677 40.1441596,330.02749 41.5625,331.9825 C42.9808404,333.93751 45.1466521,335.834991 48.06,337.675 C49.593341,338.595005 51.3183238,339.629994 53.235,340.78 C55.1516762,341.930006 57.2983215,343.15666 59.675,344.46 C63.5083525,346.606677 66.6708209,348.561658 69.1625,350.325 C71.6541791,352.088342 73.7433249,353.813325 75.43,355.5 C76.4266717,356.496672 77.289163,357.493328 78.0175,358.49 C78.745837,359.486672 79.3783306,360.521661 79.915,361.595 C80.5283364,362.821673 80.9883318,364.105827 81.295,365.4475 C81.6016682,366.789173 81.755,368.226659 81.755,369.76 C81.755,376.123365 79.052527,381.336646 73.6475,385.4 C68.242473,389.463354 61.3233755,391.495 52.89,391.495 C51.2799919,391.495 49.5550092,391.399168 47.715,391.2075 C45.8749908,391.015832 44.0350092,390.766668 42.195,390.46 C39.128318,389.999998 36.1766809,389.367504 33.34,388.5625 C30.5033191,387.757496 28.2033422,386.895005 26.44,385.975 L26.44,385.86 Z M170.65,333.19 L166.97,333.19 C164.36332,327.439971 160.606691,322.859184 155.7,319.4475 C150.793309,316.035816 145.465029,314.33 139.715,314.33 C130.668288,314.33 123.385028,317.588301 117.865,324.105 C112.344972,330.621699 109.585,339.169947 109.585,349.75 C109.585,360.713388 112.517471,369.606633 118.3825,376.43 C124.247529,383.253367 131.894953,386.665 141.325,386.665 C145.081685,386.665 148.569984,386.109172 151.79,384.9975 C155.010016,383.885828 157.731656,382.29501 159.955,380.225 C161.718342,378.691659 163.136661,376.89001 164.21,374.82 C165.283339,372.74999 166.203329,370.220015 166.97,367.23 L171.225,367.115 L170.65,385.17 C168.349988,386.166672 165.762514,387.067496 162.8875,387.8725 C160.012486,388.677504 157.118348,389.348331 154.205,389.885 C151.521653,390.345002 148.915013,390.709165 146.385,390.9775 C143.854987,391.245835 141.516677,391.38 139.37,391.38 C126.413269,391.38 115.871707,387.700037 107.745,380.34 C99.6182927,372.979963 95.555,363.435059 95.555,351.705 C95.555,339.438272 99.8099575,329.356706 108.32,321.46 C116.830043,313.563294 127.7166,309.615 140.98,309.615 C145.273355,309.615 149.643311,310.074995 154.09,310.995 C158.536689,311.915005 163.136643,313.294991 167.89,315.135 L170.65,333.19 Z M181.23,311.57 L218.145,311.57 L218.145,315.94 L216.535,315.94 C212.62498,316.016667 209.865008,317.051657 208.255,319.045 C206.644992,321.038343 205.84,324.449976 205.84,329.28 L205.84,372.405 C205.84,377.311691 206.644992,380.761657 208.255,382.755 C209.865008,384.748343 212.62498,385.745 216.535,385.745 L218.145,385.63 L218.145,390 L181.23,390 L181.23,385.63 L183.07,385.63 C186.98002,385.706667 189.739992,384.748343 191.35,382.755 C192.960008,380.761657 193.765,377.350024 193.765,372.52 L193.765,329.165 C193.765,324.411643 192.960008,321.038343 191.35,319.045 C189.739992,317.051657 186.98002,316.055 183.07,316.055 L181.23,315.94 L181.23,311.57 Z M224.24,390 L224.24,385.63 L225.735,385.63 C229.64502,385.706667 232.404992,384.748343 234.015,382.755 C235.625008,380.761657 236.43,377.350024 236.43,372.52 L236.43,329.165 C236.43,324.334976 235.625008,320.923343 234.015,318.93 C232.404992,316.936657 229.64502,315.94 225.735,315.94 L224.24,315.825 L224.24,311.57 L290.71,311.57 L290.71,329.05 L286.57,329.05 C285.419994,326.213319 284.13584,323.894176 282.7175,322.0925 C281.29916,320.290824 279.631676,318.968338 277.715,318.125 C276.181659,317.434997 274.456676,316.975001 272.54,316.745 C270.623324,316.514999 267.786685,316.4 264.03,316.4 L248.62,316.285 L248.62,346.53 L263.915,346.53 C269.358361,346.606667 273.229988,345.840008 275.53,344.23 C277.830012,342.619992 279.133332,339.783354 279.44,335.72 L284.04,335.605 L284.04,363.32 L279.44,363.32 C278.749997,359.026645 277.293344,356.017509 275.07,354.2925 C272.846656,352.567491 269.243358,351.705 264.26,351.705 L248.62,351.59 L248.62,370.565 C248.62,374.551687 249.022496,377.503324 249.8275,379.42 C250.632504,381.336676 252.108323,382.793328 254.255,383.79 C255.55834,384.403336 256.995825,384.824999 258.5675,385.055 C260.139175,385.285001 262.304986,385.4 265.065,385.4 C268.821685,385.4 271.907488,385.189169 274.3225,384.7675 C276.737512,384.345831 278.941657,383.636672 280.935,382.64 C282.928343,381.643328 284.653326,380.455007 286.11,379.075 C287.566674,377.694993 288.94666,375.893344 290.25,373.67 C290.480001,373.209998 290.729165,372.750002 290.9975,372.29 C291.265835,371.829998 291.514999,371.370002 291.745,370.91 L296.92,370.795 L291.86,390 L224.24,390 Z M299.565,311.57 L318.31,311.57 L377.075,371.14 L376.155,333.535 C376.078333,330.468318 375.810002,327.919177 375.35,325.8875 C374.889998,323.855823 374.200005,322.150007 373.28,320.77 C372.283328,319.236659 370.884176,318.067504 369.0825,317.2625 C367.280824,316.457496 365.306677,316.055 363.16,316.055 L362.585,315.94 L362.585,311.57 L393.405,311.57 L393.405,315.94 L393.06,315.94 C389.303315,316.016667 386.370844,317.530819 384.2625,320.4825 C382.154156,323.434181 381.1,327.593306 381.1,332.96 L381.1,333.535 L381.79,366.77 C381.79,367.383336 381.809166,367.958331 381.8475,368.495 C381.885834,369.031669 381.905,369.529998 381.905,369.99 C381.981667,371.830009 382.058333,373.344161 382.135,374.5325 C382.211667,375.720839 382.326666,376.851661 382.48,377.925 C382.48,378.385002 382.537499,378.864164 382.6525,379.3625 C382.767501,379.860836 382.863333,380.378331 382.94,380.915 L383.975,386.09 C384.128334,386.933338 384.243333,387.604164 384.32,388.1025 C384.396667,388.600836 384.435,389.041665 384.435,389.425 C384.511667,389.655001 384.55,389.884999 384.55,390.115 L384.55,390.92 L377.075,390.92 C375.464992,388.773323 373.874175,386.760843 372.3025,384.8825 C370.730825,383.004157 369.216674,381.336674 367.76,379.88 L320.15,330.89 L321.07,368.035 C321.146667,371.94502 321.319165,374.724158 321.5875,376.3725 C321.855835,378.020842 322.37333,379.419994 323.14,380.57 C323.216667,380.646667 323.274166,380.723333 323.3125,380.8 C323.350834,380.876667 323.408333,380.953333 323.485,381.03 C324.481672,382.486674 325.919157,383.636662 327.7975,384.48 C329.675843,385.323338 331.688323,385.745 333.835,385.745 L334.87,385.63 L334.87,390 L302.095,390 L302.095,385.63 L303.82,385.63 C307.960021,385.706667 311.00749,384.729177 312.9625,382.6975 C314.91751,380.665823 315.895,377.541688 315.895,373.325 L315.895,368.035 L315.32,325.715 L310.03,320.655 C309.723332,320.424999 309.435835,320.175835 309.1675,319.9075 C308.899165,319.639165 308.611668,319.390001 308.305,319.16 C307.154994,318.316662 305.92834,317.665002 304.625,317.205 C303.32166,316.744998 301.673343,316.438334 299.68,316.285 L299.565,311.57 Z M478.505,333.19 L474.825,333.19 C472.21832,327.439971 468.461691,322.859184 463.555,319.4475 C458.648309,316.035816 453.320029,314.33 447.57,314.33 C438.523288,314.33 431.240028,317.588301 425.72,324.105 C420.199972,330.621699 417.44,339.169947 417.44,349.75 C417.44,360.713388 420.372471,369.606633 426.2375,376.43 C432.102529,383.253367 439.749953,386.665 449.18,386.665 C452.936685,386.665 456.424984,386.109172 459.645,384.9975 C462.865016,383.885828 465.586656,382.29501 467.81,380.225 C469.573342,378.691659 470.991661,376.89001 472.065,374.82 C473.138339,372.74999 474.05833,370.220015 474.825,367.23 L479.08,367.115 L478.505,385.17 C476.204989,386.166672 473.617514,387.067496 470.7425,387.8725 C467.867486,388.677504 464.973348,389.348331 462.06,389.885 C459.376653,390.345002 456.770013,390.709165 454.24,390.9775 C451.709987,391.245835 449.371677,391.38 447.225,391.38 C434.268269,391.38 423.726707,387.700037 415.6,380.34 C407.473293,372.979963 403.41,363.435059 403.41,351.705 C403.41,339.438272 407.664957,329.356706 416.175,321.46 C424.685043,313.563294 435.5716,309.615 448.835,309.615 C453.128355,309.615 457.498311,310.074995 461.945,310.995 C466.391689,311.915005 470.991643,313.294991 475.745,315.135 L478.505,333.19 Z M488.97,390 L488.97,385.63 L490.465,385.63 C494.37502,385.706667 497.134992,384.748343 498.745,382.755 C500.355008,380.761657 501.16,377.350024 501.16,372.52 L501.16,329.165 C501.16,324.334976 500.355008,320.923343 498.745,318.93 C497.134992,316.936657 494.37502,315.94 490.465,315.94 L488.97,315.825 L488.97,311.57 L555.44,311.57 L555.44,329.05 L551.3,329.05 C550.149994,326.213319 548.86584,323.894176 547.4475,322.0925 C546.02916,320.290824 544.361676,318.968338 542.445,318.125 C540.911659,317.434997 539.186676,316.975001 537.27,316.745 C535.353324,316.514999 532.516685,316.4 528.76,316.4 L513.35,316.285 L513.35,346.53 L528.645,346.53 C534.088361,346.606667 537.959989,345.840008 540.26,344.23 C542.560011,342.619992 543.863332,339.783354 544.17,335.72 L548.77,335.605 L548.77,363.32 L544.17,363.32 C543.479997,359.026645 542.023344,356.017509 539.8,354.2925 C537.576656,352.567491 533.973358,351.705 528.99,351.705 L513.35,351.59 L513.35,370.565 C513.35,374.551687 513.752496,377.503324 514.5575,379.42 C515.362504,381.336676 516.838323,382.793328 518.985,383.79 C520.28834,384.403336 521.725825,384.824999 523.2975,385.055 C524.869175,385.285001 527.034986,385.4 529.795,385.4 C533.551685,385.4 536.637488,385.189169 539.0525,384.7675 C541.467512,384.345831 543.671657,383.636672 545.665,382.64 C547.658343,381.643328 549.383326,380.455007 550.84,379.075 C552.296674,377.694993 553.67666,375.893344 554.98,373.67 C555.210001,373.209998 555.459165,372.750002 555.7275,372.29 C555.995835,371.829998 556.244999,371.370002 556.475,370.91 L561.65,370.795 L556.59,390 L488.97,390 Z" id="FUCK-YOU,-CUZ-SCIENC-Copy" fill="#FFFFFF"></path>
            <g id="Group" transform="translate(210.500000, 114.000000) scale(-1, 1) translate(-210.500000, -114.000000) translate(101.000000, 14.000000)">
                <path d="M84.5349045,28.0857308 C84.5349045,28.0857308 60.090786,27.4544011 51.1781158,29.6182034 C42.2654457,31.7820057 25.1453777,40.7743688 22.8718303,43.2435045 C20.5982829,45.7126402 5.87654056,54.9801614 2.87459459,72.5918928 C-0.127351386,90.2036241 0.000792852854,95.8021734 0.000792852845,102.142614 C0.000792852836,108.483055 0.571371474,122.626797 3.27251597,131.789106 C5.97366047,140.951415 11.1227844,155.651679 13.4948006,159.096054 C15.8668167,162.540429 19.1909542,169.379715 28.883141,178.055898 C38.5753278,186.73208 41.1067451,189.244906 62.0131313,193.559319 C75.2086105,197.137237 86.1878657,197.985691 89.0690877,197.985689 C91.9503098,197.985687 120.104926,200.334773 134.06995,198.240628 C148.034973,196.146484 157.008428,193.12296 161.06116,191.224398 C165.113892,189.325836 175.494919,187.944582 193.54908,168.157097 C203.569275,157.770004 208.501892,145.484931 209.844711,142.588203 C211.187531,139.691474 215.969252,124.086766 216.9635,117.463045 C217.957748,110.839324 219.398891,92.5886898 217.844694,84.0449855 C216.290497,75.5012812 214.815308,63.9147715 209.185181,58.0026106 C203.555054,52.0904497 201.637619,48.795566 194.476379,43.2435049 C187.31514,37.6914438 177.241031,31.8422617 170.49942,31.0208634 C163.757809,30.1994651 157.172379,28.0857308 157.172379,28.0857308 L84.5349045,28.0857308 Z" id="Path" fill="#FB770B"></path>
                <circle id="Oval" fill="#040001" cx="145" cy="138" r="8"></circle>
                <circle id="Oval-Copy" fill="#040001" cx="34" cy="138" r="8"></circle>
                <path d="M109.340049,13.8781105 C109.340049,13.8781105 128.634258,-3.06401299e-11 133.208267,0 C136.531665,4.04537344 137.054519,13.6282456 138.926901,16.4654024 C138.9269,16.4654029 152.8185,16.5668909 160.636901,28.4871883 C168.455303,40.4074858 167.726261,42.2085715 167.726261,42.2085715 C167.726261,42.2085715 153.190408,43.8664165 146.500575,43.8664167 C139.810743,43.8664169 127.909836,42.6997271 127.909836,42.6997271 C127.909836,42.6997271 120.749794,46.398759 108.182832,50.0901075 C95.6158696,53.781456 86.402981,58.3671491 86.402981,58.3671491 C86.402981,58.3671491 83.5594291,43.3545127 84.9812051,37.0003269 C86.402981,30.6461411 87.6148392,29.788684 87.6148392,29.788684 C87.6148392,29.788684 80.387167,24.9021664 74.0351772,24.103117 C67.6831875,23.3040676 63,21.1249638 63,21.1249638 C63,21.1249638 67.9688591,15.6965239 74.7167513,14.5116741 C80.4269104,12.6500807 89.2267724,12.1738131 93.0404243,12.1738129 C96.8540763,12.1738126 109.340049,13.8781105 109.340049,13.8781105 Z" id="Path-2" fill="#00AB7E"></path>
                <path d="M88.9563812,159.385244 C86.97271,159.385244 81.1041855,159.385244 75.6979989,153.907685 C71.3493432,148.544061 70.5923228,147.629803 70,142.297954 C70.2399487,140.508583 71.6707362,140 71.6707362,140 L106.797462,140 C106.797462,140 108.276528,140.670373 108.276528,142.137296 C108.276528,143.604218 106.547972,152.462229 100.291258,155.802739 C94.0345444,159.14325 90.9400524,159.385244 88.9563812,159.385244 Z" id="Path-3" fill="#040001"></path>
            </g>
            <g id="Group-3" transform="translate(397.000000, 199.000000)">
                <g id="Group-Copy">
                    <path d="M84.5349045,33.0857308 C84.5349045,33.0857308 60.090786,32.4544011 51.1781158,34.6182034 C42.2654457,36.7820057 25.1453777,45.7743688 22.8718303,48.2435045 C20.5982829,50.7126402 5.87654056,59.9801614 2.87459459,77.5918928 C-0.127351386,95.2036241 0.000792852854,100.802173 0.000792852845,107.142614 C0.000792852836,113.483055 0.571371474,127.626797 3.27251597,136.789106 C5.97366047,145.951415 11.1227844,160.651679 13.4948006,164.096054 C15.8668167,167.540429 19.1909542,174.379715 28.883141,183.055898 C38.5753278,191.73208 41.1067451,194.244906 62.0131313,198.559319 C75.2086105,202.137237 86.1878657,202.985691 89.0690877,202.985689 C91.9503098,202.985687 120.104926,205.334773 134.06995,203.240628 C148.034973,201.146484 157.008428,198.12296 161.06116,196.224398 C165.113892,194.325836 175.494919,192.944582 193.54908,173.157097 C203.569275,162.770004 208.501892,150.484931 209.844711,147.588203 C211.187531,144.691474 215.969252,129.086766 216.9635,122.463045 C217.957748,115.839324 219.398891,97.5886898 217.844694,89.0449855 C216.290497,80.5012812 214.815308,68.9147715 209.185181,63.0026106 C203.555054,57.0904497 201.637619,53.795566 194.476379,48.2435049 C187.31514,42.6914438 177.241031,36.8422617 170.49942,36.0208634 C163.757809,35.1994651 157.172379,33.0857308 157.172379,33.0857308 L84.5349045,33.0857308 Z" id="Path" fill="#FB770B" transform="translate(109.264696, 118.554785) scale(-1, 1) translate(-109.264696, -118.554785) "></path>
                    <path d="M107.597016,21.8706376 C107.597016,21.8706376 123.547181,9.16503649 128.12119,9.16503649 C131.444589,13.2104099 130.468298,21.0956199 132.34068,23.9327767 C132.340679,23.9327773 146.648512,23.7905892 154.466914,35.7108867 C162.285316,47.6311841 161.556273,49.4322699 161.556273,49.4322699 C161.556273,49.4322699 147.02042,51.0901148 140.330588,51.0901151 C133.640755,51.0901153 114.410085,45.0714925 114.410085,45.0714925 C114.410085,45.0714925 108.347501,50.6479047 99.2494698,55.7002723 C90.1514388,60.7526398 76.3128987,63.3960044 76.3128987,63.3960044 C76.3128987,63.3960044 80.2187263,52.3759244 80.2187263,50.8541349 C80.2187263,49.3323453 78.8879291,46.1522992 78.8879283,43.8813609 C78.8879276,41.6104226 79.7602035,40.1522262 79.7602035,40.1522262 C79.7602035,40.1522262 76.1201726,39.3908698 71.1203548,40.1522262 C66.1205369,40.9135825 60.4066058,45.0471503 60.4066058,43.3950774 C60.4066058,41.7430045 68.7211132,29.2450619 73.7661653,26.1469161 C78.8112174,23.0487702 87.562669,22.4288422 91.376321,22.4288419 C95.1899729,22.4288416 107.597016,21.8706376 107.597016,21.8706376 Z" id="Path-2" fill="#00AB7E" transform="translate(110.990445, 36.280520) rotate(11.000000) translate(-110.990445, -36.280520) "></path>
                </g>
                <g id="Group-2" transform="translate(39.000000, 122.000000)" stroke="#040001" stroke-width="7" stroke-linecap="round" stroke-linejoin="round">
                    <path d="M131.5,1.5 L145,13" id="Line"></path>
                    <path d="M0.5,1.5 L14,13" id="Line-Copy-2"></path>
                    <path d="M132,1 L144.5,12.5" id="Line-Copy" transform="translate(138.000000, 6.500000) rotate(90.000000) translate(-138.000000, -6.500000) "></path>
                    <path d="M1,1 L13.5,12.5" id="Line-Copy-3" transform="translate(7.000000, 6.500000) rotate(90.000000) translate(-7.000000, -6.500000) "></path>
                    <path d="M48,27.9970436 C48,27.9970436 53.1834814,33 66.5968985,33 C80.0103157,33 84.3461495,31.7301654 84.3461493,31.7301654 C87.9444155,31.1735886 89.1677658,30.8506367 95,27.4279568" id="Path-4" transform="translate(71.500000, 30.213978) scale(1, -1) translate(-71.500000, -30.213978) "></path>
                </g>
            </g>
        </g>
    </g>
</svg>