<?xml version="1.0" encoding="UTF-8"?>
<svg width="420px" height="176px" viewBox="0 0 420 176" version="1.1" xmlns="http://www.w3.org/2000/svg" xmlns:xlink="http://www.w3.org/1999/xlink">
    <title>lake</title>
    <g id="lake" stroke="none" stroke-width="1" fill="none" fill-rule="evenodd">
        <rect fill="#004021" x="0" y="0" width="420" height="176"></rect>
        <text id="Deep-Interface" font-family="HelveticaNeue-Bold, Helvetica Neue" font-size="14" font-weight="bold" fill="#FFFFFF">
            <tspan x="284" y="20">Deep Interface</tspan>
        </text>
        <path d="M303.8,50 C307.333701,53.3333333 310.831395,55 314.293082,55 C317.754768,55 321.288521,53.3333333 324.89434,50" id="Path-2" stroke="#FFFFFF" stroke-linecap="round" stroke-linejoin="round"></path>
        <path d="M325.43522,50 C328.968922,53.3333333 332.466615,55 335.928302,55 C339.389988,55 342.923741,53.3333333 346.52956,50" id="Path-2-Copy" stroke="#FFFFFF" stroke-linecap="round" stroke-linejoin="round"></path>
        <path d="M347.07044,50 C350.604142,53.3333333 354.101836,55 357.563522,55 C361.025208,55 364.558961,53.3333333 368.16478,50" id="Path-2-Copy-2" stroke="#FFFFFF" stroke-linecap="round" stroke-linejoin="round"></path>
        <path d="M368.70566,50 C372.239362,53.3333333 375.737056,55 379.198742,55 C382.660429,55 386.194181,53.3333333 389.8,50" id="Path-2-Copy-3" stroke="#FFFFFF" stroke-linecap="round" stroke-linejoin="round"></path>
        <g id="Group" transform="translate(46.848437, 70.409932)" fill="#FFFFFF" stroke="#FFFFFF" stroke-linecap="square" stroke-linejoin="round">
            <g>
                <circle id="Oval-Copy-21" cx="15.1908107" cy="6.60700017" r="4.75198493"></circle>
                <polygon id="Triangle-Copy" transform="translate(6.694781, 6.500000) rotate(-270.000000) translate(-6.694781, -6.500000) " points="6.69478057 1.74801507 12.0407636 11.2519849 1.34879752 11.2519849"></polygon>
            </g>
        </g>
        <g id="Group" transform="translate(114.057204, 70.817808)" fill="#FFFFFF" stroke="#FFFFFF" stroke-linecap="square" stroke-linejoin="round">
            <g>
                <circle id="Oval-Copy-21" cx="15.1908107" cy="6.60700017" r="4.75198493"></circle>
                <polygon id="Triangle-Copy" transform="translate(6.694781, 6.500000) rotate(-270.000000) translate(-6.694781, -6.500000) " points="6.69478057 1.74801507 12.0407636 11.2519849 1.34879752 11.2519849"></polygon>
            </g>
        </g>
        <g id="Group" transform="translate(178.848437, 70.817808)" fill="#FFFFFF" stroke="#FFFFFF" stroke-linecap="square" stroke-linejoin="round">
            <g>
                <circle id="Oval-Copy-21" cx="15.1908107" cy="6.60700017" r="4.75198493"></circle>
                <polygon id="Triangle-Copy" transform="translate(6.694781, 6.500000) rotate(-270.000000) translate(-6.694781, -6.500000) " points="6.69478057 1.74801507 12.0407636 11.2519849 1.34879752 11.2519849"></polygon>
            </g>
        </g>
        <text id="Wide-Interface" font-family="HelveticaNeue-Bold, Helvetica Neue" font-size="14" font-weight="bold" fill="#FFFFFF">
            <tspan x="4" y="20">Wide Interface</tspan>
        </text>
        <path d="M4,46.2591668 C17.605948,44.6004991 24.4089219,50.9034364 24.4089219,65.1679785 C24.4089219,86.5647917 24.4089219,63.1775773 24.4089219,80.593588 C24.4089219,98.0095988 36.2007435,100 49.8066914,100 C58.8773234,100 84.2750929,100 126,100" id="Path-Copy-2" stroke="#FFFFFF" stroke-linecap="square" stroke-linejoin="round"></path>
        <path d="M125,46.2591668 C138.605948,44.6004991 145.408922,50.9034364 145.408922,65.1679785 C145.408922,86.5647917 145.408922,63.1775773 145.408922,80.593588 C145.408922,98.0095988 157.200743,100 170.806691,100 C179.877323,100 205.275093,100 247,100" id="Path-Copy-3" stroke="#FFFFFF" stroke-linecap="square" stroke-linejoin="round" transform="translate(186.000000, 73.000000) scale(-1, 1) translate(-186.000000, -73.000000) "></path>
        <path d="M19.8,50 C23.3489343,53.3333333 26.8617058,55 30.3383146,55 C33.8149234,55 37.3639091,53.3333333 40.9852717,50" id="Path-2-Copy-4" stroke="#FFFFFF" stroke-linecap="round" stroke-linejoin="round"></path>
        <path d="M40.9952717,50 C44.544206,53.3333333 48.0569775,55 51.5335863,55 C55.0101951,55 58.5591808,53.3333333 62.1805433,50" id="Path-2-Copy-5" stroke="#FFFFFF" stroke-linecap="round" stroke-linejoin="round"></path>
        <path d="M62.1905433,50 C65.7394776,53.3333333 69.2522492,55 72.728858,55 C76.2054667,55 79.7544524,53.3333333 83.375815,50" id="Path-2-Copy-6" stroke="#FFFFFF" stroke-linecap="round" stroke-linejoin="round"></path>
        <path d="M83.385815,50 C86.9347493,53.3333333 90.4475208,55 93.9241296,55 C97.4007384,55 100.949724,53.3333333 104.571087,50" id="Path-2-Copy-7" stroke="#FFFFFF" stroke-linecap="round" stroke-linejoin="round"></path>
        <path d="M104.581087,50 C108.130021,53.3333333 111.642792,55 115.119401,55 C118.59601,55 122.144996,53.3333333 125.766358,50" id="Path-2-Copy-8" stroke="#FFFFFF" stroke-linecap="round" stroke-linejoin="round"></path>
        <path d="M125.776358,50 C129.325293,53.3333333 132.838064,55 136.314673,55 C139.791282,55 143.340267,53.3333333 146.96163,50" id="Path-2-Copy-9" stroke="#FFFFFF" stroke-linecap="round" stroke-linejoin="round"></path>
        <path d="M146.97163,50 C150.520564,53.3333333 154.033336,55 157.509945,55 C160.986553,55 164.535539,53.3333333 168.156902,50" id="Path-2-Copy-10" stroke="#FFFFFF" stroke-linecap="round" stroke-linejoin="round"></path>
        <path d="M168.166902,50 C171.715836,53.3333333 175.228607,55 178.705216,55 C182.181825,55 185.730811,53.3333333 189.352173,50" id="Path-2-Copy-11" stroke="#FFFFFF" stroke-linecap="round" stroke-linejoin="round"></path>
        <path d="M189.362173,50 C192.911108,53.3333333 196.423879,55 199.900488,55 C203.377097,55 206.926082,53.3333333 210.547445,50" id="Path-2-Copy-12" stroke="#FFFFFF" stroke-linecap="round" stroke-linejoin="round"></path>
        <path d="M210.557445,50 C214.106379,53.3333333 217.619151,55 221.09576,55 C224.572368,55 228.121354,53.3333333 231.742717,50" id="Path-2-Copy-13" stroke="#FFFFFF" stroke-linecap="round" stroke-linejoin="round"></path>
        <path d="M284,46 C301.104072,44.3333333 309.656109,50.6666667 309.656109,65 C309.656109,86.5 309.656109,120 309.656109,137.5 C309.656109,155 330.180995,166 347.285068,166" id="Path" stroke="#FFFFFF" stroke-linecap="square" stroke-linejoin="round"></path>
        <path d="M346.714932,46 C363.819005,44.3333333 372.371041,50.6666667 372.371041,65 C372.371041,86.5 372.371041,120 372.371041,137.5 C372.371041,155 392.895928,166 410,166" id="Path-Copy" stroke="#FFFFFF" stroke-linecap="square" stroke-linejoin="round" transform="translate(378.357466, 105.869792) scale(-1, 1) translate(-378.357466, -105.869792) "></path>
        <g id="Group" transform="translate(335.982390, 69.817808)" fill="#FFFFFF" stroke="#FFFFFF" stroke-linecap="square" stroke-linejoin="round">
            <g>
                <circle id="Oval-Copy-21" cx="15.1908107" cy="6.60700017" r="4.75198493"></circle>
                <polygon id="Triangle-Copy" transform="translate(6.694781, 6.500000) rotate(-270.000000) translate(-6.694781, -6.500000) " points="6.69478057 1.74801507 12.0407636 11.2519849 1.34879752 11.2519849"></polygon>
            </g>
        </g>
        <g id="Group" transform="translate(321.461197, 124.817808)" fill="#FFFFFF" stroke="#FFFFFF" stroke-linecap="square" stroke-linejoin="round">
            <g>
                <circle id="Oval-Copy-21" cx="15.1908107" cy="6.60700017" r="4.75198493"></circle>
                <polygon id="Triangle-Copy" transform="translate(6.694781, 6.500000) rotate(-270.000000) translate(-6.694781, -6.500000) " points="6.69478057 1.74801507 12.0407636 11.2519849 1.34879752 11.2519849"></polygon>
            </g>
        </g>
        <g id="Group" transform="translate(354.461197, 124.817808)" fill="#FFFFFF" stroke="#FFFFFF" stroke-linecap="square" stroke-linejoin="round">
            <g>
                <circle id="Oval-Copy-21" cx="15.1908107" cy="6.60700017" r="4.75198493"></circle>
                <polygon id="Triangle-Copy" transform="translate(6.694781, 6.500000) rotate(-270.000000) translate(-6.694781, -6.500000) " points="6.69478057 1.74801507 12.0407636 11.2519849 1.34879752 11.2519849"></polygon>
            </g>
        </g>
    </g>
</svg>