<?xml version="1.0" encoding="UTF-8" standalone="no"?>
<svg width="32px" height="27px" viewBox="0 0 32 27" version="1.1" xmlns="http://www.w3.org/2000/svg" xmlns:xlink="http://www.w3.org/1999/xlink" xmlns:sketch="http://www.bohemiancoding.com/sketch/ns">
    <!-- Generator: Sketch 3.0.4 (8053) - http://www.bohemiancoding.com/sketch -->
    <title>Twitter_bird_logo_2012</title>
    <desc>Created with Sketch.</desc>
    <defs></defs>
    <g id="Page-1" stroke="none" stroke-width="1" fill="none" fill-rule="evenodd" sketch:type="MSPage">
        <g id="Twitter_bird_logo_2012" sketch:type="MSLayerGroup" fill="#2AA9E0">
            <g id="layer1" transform="translate(-0.059633, -0.057488)" sketch:type="MSShapeGroup">
                <path d="M31.9676149,3.14360388 C30.7937172,3.66715223 29.5319144,4.0208364 28.2078902,4.17995453 C29.5593563,3.36543626 30.5974828,2.07565295 31.0861544,0.538691942 C29.8211609,1.29305669 28.4202381,1.84066532 26.9290177,2.1358046 C25.7350177,0.856606475 24.0336819,0.0574880576 22.1507888,0.0574880576 C18.5356093,0.0574880576 15.6043777,3.00421396 15.6043777,6.63890173 C15.6043777,7.15475108 15.6622902,7.65712719 15.7739684,8.1388118 C10.3333284,7.8643659 5.50979163,5.2440541 2.28101767,1.26209986 C1.71752186,2.2341295 1.39461209,3.36463568 1.39461209,4.57085237 C1.39461209,6.85432014 2.55032186,8.8687964 4.30685767,10.0490262 C3.23379163,10.0148614 2.2243814,9.71876072 1.34180465,9.22584935 C1.34106047,9.25327655 1.34106047,9.2808646 1.34106047,9.3086154 C1.34106047,12.4973882 3.59759814,15.1573173 6.59232558,15.7623504 C6.04302884,15.9128062 5.46469581,15.9931668 4.86769488,15.9931668 C4.44587163,15.9931668 4.03585488,15.9517837 3.63604651,15.8751118 C4.46916465,18.4898083 6.88667721,20.3926455 9.75138047,20.445577 C7.51095814,22.2109508 4.68837395,23.263182 1.62121302,23.263182 C1.09281488,23.263182 0.57175814,23.2319035 0.0596334884,23.1711102 C2.95672372,25.0386603 6.39768558,26.1282642 10.0945507,26.1282642 C22.1355256,26.1282642 28.720227,16.0995142 28.720227,7.40192878 C28.720227,7.11657597 28.7138456,6.83282619 28.7012428,6.55036144 C29.9801153,5.62260101 31.0898772,4.46354158 31.9675088,3.14360388 L31.9676149,3.14360388 Z" id="path5"></path>
            </g>
        </g>
    </g>
</svg>