<?xml version="1.0" encoding="utf-8"?>
<!-- Generator: Adobe Illustrator 17.1.0, SVG Export Plug-In . SVG Version: 6.00 Build 0)  -->
<!DOCTYPE svg PUBLIC "-//W3C//DTD SVG 1.1//EN" "http://www.w3.org/Graphics/SVG/1.1/DTD/svg11.dtd">
<svg version="1.1" xmlns="http://www.w3.org/2000/svg" xmlns:xlink="http://www.w3.org/1999/xlink" x="0px" y="0px"
	 viewBox="0 181 800 265.535" enable-background="new 0 181 800 265.535" xml:space="preserve">
<g id="Layer_2_1_">
	<g id="Layer_1_1_">
		<rect y="181" fill="#004021" width="800" height="265.535"/>
	</g>
</g>
<g id="Layer_1">
	<g>
		<path fill="#003F21" d="M188.828,364.147c-5.623,2.668-14.7,2.426-20.171-0.539l-82.848-44.892
			c-5.472-2.965-5.318-7.509,0.341-10.098l73.815-33.769c5.659-2.589,14.798-2.34,20.308,0.552l82.822,43.483
			c5.511,2.893,5.419,7.443-0.204,10.111L188.828,364.147z"/>
		<path fill="none" stroke="#FFFFFF" stroke-miterlimit="10" d="M188.828,364.147c-5.623,2.668-14.7,2.426-20.171-0.539
			l-82.848-44.892c-5.472-2.965-5.318-7.509,0.341-10.098l73.815-33.769c5.659-2.589,14.798-2.34,20.308,0.552l82.822,43.483
			c5.511,2.893,5.419,7.443-0.204,10.111L188.828,364.147z"/>
	</g>
	<ellipse fill="#FFFFFF" stroke="#003F21" stroke-miterlimit="10" cx="209.174" cy="337.225" rx="8.41" ry="3.838"/>
	<g>
		<path fill="#003F21" d="M420.828,368.736c-5.623,2.668-14.7,2.426-20.171-0.539l-82.848-44.892
			c-5.472-2.965-5.318-7.509,0.341-10.098l73.815-33.769c5.659-2.589,14.798-2.34,20.308,0.552l82.822,43.483
			c5.511,2.893,5.419,7.443-0.204,10.111L420.828,368.736z"/>
		<path fill="none" stroke="#FFFFFF" stroke-miterlimit="10" d="M420.828,368.736c-5.623,2.668-14.7,2.426-20.171-0.539
			l-82.848-44.892c-5.472-2.965-5.318-7.509,0.341-10.098l73.815-33.769c5.659-2.589,14.798-2.34,20.308,0.552l82.822,43.483
			c5.511,2.893,5.419,7.443-0.204,10.111L420.828,368.736z"/>
	</g>
	<ellipse fill="#FFFFFF" stroke="#003F21" stroke-miterlimit="10" cx="441.174" cy="341.814" rx="8.41" ry="3.838"/>
	<g>
		<g>
			<defs>
				<rect id="SVGID_1_" x="423.197" y="324.119" width="1.132" height="1.132"/>
			</defs>
			<clipPath id="SVGID_2_">
				<use xlink:href="#SVGID_1_"  overflow="visible"/>
			</clipPath>
			<g clip-path="url(#SVGID_2_)">
				<g opacity="0">
					<g opacity="0">
						<g>
							<defs>
								<rect id="SVGID_3_" x="423.197" y="324.119" width="1.132" height="1.132"/>
							</defs>
							<clipPath id="SVGID_4_">
								<use xlink:href="#SVGID_3_"  overflow="visible"/>
							</clipPath>
							<g clip-path="url(#SVGID_4_)">
							</g>
						</g>
					</g>
				</g>
				<g id="Layer_2">
					<defs>
						<rect id="SVGID_5_" x="423.197" y="324.119" width="1.132" height="1.132"/>
					</defs>
					<clipPath id="SVGID_6_">
						<use xlink:href="#SVGID_5_"  overflow="visible"/>
					</clipPath>
					<g clip-path="url(#SVGID_6_)">
						<g opacity="0">
							<g opacity="0">
								<g>
									<defs>
										<rect id="SVGID_7_" x="423.197" y="324.119" width="1.132" height="1.132"/>
									</defs>
									<clipPath id="SVGID_8_">
										<use xlink:href="#SVGID_7_"  overflow="visible"/>
									</clipPath>
									<g clip-path="url(#SVGID_8_)">
									</g>
								</g>
							</g>
						</g>
					</g>
				</g>
			</g>
		</g>
	</g>
	<g>
		<path fill="#003F21" d="M650.828,363.736c-5.623,2.668-14.7,2.426-20.171-0.539l-82.848-44.892
			c-5.472-2.965-5.318-7.509,0.341-10.098l73.815-33.769c5.659-2.589,14.798-2.34,20.308,0.552l82.822,43.483
			c5.511,2.893,5.419,7.443-0.204,10.111L650.828,363.736z"/>
		<path fill="none" stroke="#FFFFFF" stroke-miterlimit="10" d="M650.828,363.736c-5.623,2.668-14.7,2.426-20.171-0.539
			l-82.848-44.892c-5.472-2.965-5.318-7.509,0.341-10.098l73.815-33.769c5.659-2.589,14.798-2.34,20.308,0.552l82.822,43.483
			c5.511,2.893,5.419,7.443-0.204,10.111L650.828,363.736z"/>
	</g>
	<ellipse fill="#FFFFFF" stroke="#003F21" stroke-miterlimit="10" cx="671.174" cy="336.814" rx="8.41" ry="3.838"/>
	<g>
		<g>
			<defs>
				<rect id="SVGID_9_" x="653.197" y="324.119" width="1.132" height="1.132"/>
			</defs>
			<clipPath id="SVGID_10_">
				<use xlink:href="#SVGID_9_"  overflow="visible"/>
			</clipPath>
			<g clip-path="url(#SVGID_10_)">
				<g opacity="0">
					<g opacity="0">
						<g>
							<defs>
								<rect id="SVGID_11_" x="653.197" y="324.119" width="1.132" height="1.132"/>
							</defs>
							<clipPath id="SVGID_12_">
								<use xlink:href="#SVGID_11_"  overflow="visible"/>
							</clipPath>
							<g clip-path="url(#SVGID_12_)">
							</g>
						</g>
					</g>
				</g>
				<g id="Layer_2_2_">
					<defs>
						<rect id="SVGID_13_" x="653.197" y="324.119" width="1.132" height="1.132"/>
					</defs>
					<clipPath id="SVGID_14_">
						<use xlink:href="#SVGID_13_"  overflow="visible"/>
					</clipPath>
					<g clip-path="url(#SVGID_14_)">
						<g opacity="0">
							<g opacity="0">
								<g>
									<defs>
										<rect id="SVGID_15_" x="653.197" y="324.119" width="1.132" height="1.132"/>
									</defs>
									<clipPath id="SVGID_16_">
										<use xlink:href="#SVGID_15_"  overflow="visible"/>
									</clipPath>
									<g clip-path="url(#SVGID_16_)">
									</g>
								</g>
							</g>
						</g>
					</g>
				</g>
			</g>
		</g>
	</g>
	<line fill="none" stroke="#FFFFFF" stroke-width="2" stroke-miterlimit="10" x1="99.335" y1="314.009" x2="165.991" y2="283.516"/>
	
		<line fill="none" stroke="#FFFFFF" stroke-width="2" stroke-miterlimit="10" x1="119.041" y1="323.984" x2="153.188" y2="308.363"/>
	
		<line fill="none" stroke="#FFFFFF" stroke-width="2" stroke-miterlimit="10" x1="127.908" y1="329.631" x2="169.744" y2="310.667"/>
	<line fill="none" stroke="#FFFFFF" stroke-width="2" stroke-miterlimit="10" x1="109.02" y1="318.53" x2="152.013" y2="298.862"/>
	
		<line fill="none" stroke="#FFFFFF" stroke-width="2" stroke-miterlimit="10" x1="157.055" y1="296.422" x2="172.434" y2="289.387"/>
	
		<line fill="none" stroke="#FFFFFF" stroke-width="2" stroke-miterlimit="10" x1="137.809" y1="334.518" x2="153.188" y2="327.482"/>
	
		<line fill="none" stroke="#FFFFFF" stroke-width="2" stroke-miterlimit="10" x1="174.434" y1="308.496" x2="189.813" y2="301.461"/>
	
		<line fill="none" stroke="#FFFFFF" stroke-width="5" stroke-miterlimit="10" x1="597.359" y1="297.223" x2="606.051" y2="293.246"/>
	
		<line fill="none" stroke="#FFFFFF" stroke-width="2" stroke-miterlimit="10" x1="566.162" y1="312.332" x2="578.579" y2="306.652"/>
	
		<line fill="none" stroke="#FFFFFF" stroke-width="2" stroke-miterlimit="10" x1="584.557" y1="324.984" x2="618.704" y2="309.363"/>
	
		<line fill="none" stroke="#FFFFFF" stroke-width="2" stroke-miterlimit="10" x1="593.423" y1="330.631" x2="635.259" y2="311.667"/>
	<line fill="none" stroke="#FFFFFF" stroke-width="2" stroke-miterlimit="10" x1="574.535" y1="319.53" x2="630.75" y2="293.875"/>
	<line fill="none" stroke="#FFFFFF" stroke-width="2" stroke-miterlimit="10" x1="611.014" y1="342.824" x2="642.13" y2="328.211"/>
	
		<line fill="none" stroke="#FFFFFF" stroke-width="2" stroke-miterlimit="10" x1="603.324" y1="335.518" x2="618.704" y2="328.482"/>
	
		<line fill="none" stroke="#FFFFFF" stroke-width="2" stroke-miterlimit="10" x1="639.949" y1="309.496" x2="655.328" y2="302.461"/>
	<path fill="#FFFFFF" d="M441.631,325.448c8.169-4.157,7.199-10.551-1.924-14.294l-16.179-6.638l-4.695,13.602
		c-0.869,2.513,1.087,5.093,5.249,6.87l-16.431-7.016c6.253-3.035,5.506-7.88-1.524-10.822l-18.688-7.82l1.102,10.483l-18.146-2.662
		l6.612,8.073h-24.205l18.733,8.338c7.052,3.139,18.135,3.139,24.602,0l16.453,7.171c-4.169-1.817-9.973-2.54-15.513-1.938
		l-31.197,3.383l16.279,7.402c9.19,4.179,23.939,3.952,32.685-0.498L441.631,325.448z"/>
</g>
</svg>
