<?xml version="1.0" encoding="utf-8"?>
<!-- Generator: Adobe Illustrator 17.1.0, SVG Export Plug-In . SVG Version: 6.00 Build 0)  -->
<!DOCTYPE svg PUBLIC "-//W3C//DTD SVG 1.1//EN" "http://www.w3.org/Graphics/SVG/1.1/DTD/svg11.dtd">
<svg version="1.1" xmlns="http://www.w3.org/2000/svg" xmlns:xlink="http://www.w3.org/1999/xlink" x="0px" y="0px"
	 viewBox="0 181 800 265.535" enable-background="new 0 181 800 265.535" xml:space="preserve">
<g id="Layer_2_1_">
	<g id="Layer_1_1_">
		<rect y="181" fill="#004021" width="800" height="265.535"/>
	</g>
</g>
<g id="Layer_1">
	
		<line fill="none" stroke="#209E4E" stroke-width="16" stroke-linecap="round" stroke-linejoin="round" stroke-miterlimit="10" x1="852.716" y1="590.149" x2="1174.401" y2="748.832"/>
	<g>
		<path fill="#003F21" d="M404.938,378.326c-5.623,2.668-14.7,2.426-20.171-0.539l-82.848-44.892
			c-5.472-2.965-5.318-7.509,0.341-10.098l73.815-33.769c5.659-2.589,14.798-2.34,20.309,0.552l82.822,43.483
			c5.511,2.893,5.419,7.443-0.204,10.111L404.938,378.326z"/>
		<path fill="none" stroke="#FFFFFF" stroke-miterlimit="10" d="M404.938,378.326c-5.623,2.668-14.7,2.426-20.171-0.539
			l-82.848-44.892c-5.472-2.965-5.318-7.509,0.341-10.098l73.815-33.769c5.659-2.589,14.798-2.34,20.309,0.552l82.822,43.483
			c5.511,2.893,5.419,7.443-0.204,10.111L404.938,378.326z"/>
	</g>
	<g>
		<path fill="#003F21" d="M404.938,378.222c-5.623,2.668-14.7,2.426-20.171-0.539l-82.848-44.892
			c-5.472-2.965-5.318-7.509,0.341-10.098l73.815-33.769c5.659-2.589,14.798-2.34,20.309,0.552l82.821,43.483
			c5.511,2.893,5.419,7.443-0.204,10.111L404.938,378.222z"/>
		<path fill="none" stroke="#FFFFFF" stroke-miterlimit="10" d="M404.938,378.222c-5.623,2.668-14.7,2.426-20.171-0.539
			l-82.848-44.892c-5.472-2.965-5.318-7.509,0.341-10.098l73.815-33.769c5.659-2.589,14.798-2.34,20.309,0.552l82.821,43.483
			c5.511,2.893,5.419,7.443-0.204,10.111L404.938,378.222z"/>
	</g>
	<g>
		<path fill="#003F21" d="M404.564,369.409c-5.623,2.668-14.7,2.426-20.171-0.539l-82.848-44.892
			c-5.472-2.965-5.318-7.509,0.341-10.098l73.815-33.769c5.659-2.589,14.798-2.34,20.309,0.552l82.822,43.483
			c5.511,2.893,5.419,7.443-0.204,10.111L404.564,369.409z"/>
		<path fill="none" stroke="#FFFFFF" stroke-miterlimit="10" d="M404.564,369.409c-5.623,2.668-14.7,2.426-20.171-0.539
			l-82.848-44.892c-5.472-2.965-5.318-7.509,0.341-10.098l73.815-33.769c5.659-2.589,14.798-2.34,20.309,0.552l82.822,43.483
			c5.511,2.893,5.419,7.443-0.204,10.111L404.564,369.409z"/>
	</g>
	<g>
		<path fill="#003F21" d="M404.938,361.213c-5.623,2.668-14.7,2.426-20.171-0.539l-82.848-44.892
			c-5.472-2.965-5.318-7.509,0.341-10.098l73.815-33.769c5.659-2.589,14.798-2.34,20.309,0.552l82.822,43.483
			c5.511,2.893,5.419,7.443-0.204,10.111L404.938,361.213z"/>
		<path fill="none" stroke="#FFFFFF" stroke-miterlimit="10" d="M404.938,361.213c-5.623,2.668-14.7,2.426-20.171-0.539
			l-82.848-44.892c-5.472-2.965-5.318-7.509,0.341-10.098l73.815-33.769c5.659-2.589,14.798-2.34,20.309,0.552l82.822,43.483
			c5.511,2.893,5.419,7.443-0.204,10.111L404.938,361.213z"/>
	</g>
	<g>
		<path fill="#003F21" d="M404.564,352.4c-5.623,2.668-14.7,2.426-20.171-0.539l-82.848-44.892
			c-5.472-2.965-5.318-7.509,0.341-10.098l73.815-33.769c5.659-2.589,14.798-2.34,20.309,0.552l82.822,43.483
			c5.511,2.893,5.419,7.443-0.204,10.111L404.564,352.4z"/>
		<path fill="none" stroke="#FFFFFF" stroke-miterlimit="10" d="M404.564,352.4c-5.623,2.668-14.7,2.426-20.171-0.539
			l-82.848-44.892c-5.472-2.965-5.318-7.509,0.341-10.098l73.815-33.769c5.659-2.589,14.798-2.34,20.309,0.552l82.822,43.483
			c5.511,2.893,5.419,7.443-0.204,10.111L404.564,352.4z"/>
	</g>
	<g>
		<path fill="#003F21" d="M404.193,343.634c-5.623,2.668-14.7,2.426-20.171-0.539l-82.848-44.892
			c-5.472-2.965-5.318-7.509,0.341-10.098l73.815-33.769c5.659-2.589,14.798-2.34,20.308,0.552l82.822,43.483
			c5.511,2.893,5.419,7.443-0.204,10.111L404.193,343.634z"/>
		<path fill="none" stroke="#FFFFFF" stroke-miterlimit="10" d="M404.193,343.634c-5.623,2.668-14.7,2.426-20.171-0.539
			l-82.848-44.892c-5.472-2.965-5.318-7.509,0.341-10.098l73.815-33.769c5.659-2.589,14.798-2.34,20.308,0.552l82.822,43.483
			c5.511,2.893,5.419,7.443-0.204,10.111L404.193,343.634z"/>
	</g>
	<ellipse fill="#FFFFFF" stroke="#003F21" stroke-miterlimit="10" cx="424.539" cy="316.713" rx="8.41" ry="3.838"/>
	<g>
		<g>
			<defs>
				<rect id="SVGID_1_" x="463.197" y="315.119" width="1.132" height="1.132"/>
			</defs>
			<clipPath id="SVGID_2_">
				<use xlink:href="#SVGID_1_"  overflow="visible"/>
			</clipPath>
			<g clip-path="url(#SVGID_2_)">
				<g opacity="0">
					<g opacity="0">
						<g>
							<defs>
								<rect id="SVGID_3_" x="463.197" y="315.119" width="1.132" height="1.132"/>
							</defs>
							<clipPath id="SVGID_4_">
								<use xlink:href="#SVGID_3_"  overflow="visible"/>
							</clipPath>
							<g clip-path="url(#SVGID_4_)">
							</g>
						</g>
					</g>
				</g>
				<g id="Layer_2">
					<defs>
						<rect id="SVGID_5_" x="463.197" y="315.119" width="1.132" height="1.132"/>
					</defs>
					<clipPath id="SVGID_6_">
						<use xlink:href="#SVGID_5_"  overflow="visible"/>
					</clipPath>
					<g clip-path="url(#SVGID_6_)">
						<g opacity="0">
							<g opacity="0">
								<g>
									<defs>
										<rect id="SVGID_7_" x="463.197" y="315.119" width="1.132" height="1.132"/>
									</defs>
									<clipPath id="SVGID_8_">
										<use xlink:href="#SVGID_7_"  overflow="visible"/>
									</clipPath>
									<g clip-path="url(#SVGID_8_)">
									</g>
								</g>
							</g>
						</g>
					</g>
				</g>
			</g>
		</g>
	</g>
</g>
</svg>
