<?xml version="1.0" encoding="UTF-8"?>
<svg width="551px" height="412px" viewBox="0 0 551 412" version="1.1" xmlns="http://www.w3.org/2000/svg" xmlns:xlink="http://www.w3.org/1999/xlink">
    <!-- Generator: Sketch 54.1 (76490) - https://sketchapp.com -->
    <title>avatar copy</title>
    <desc>Created with Sketch.</desc>
    <g id="ðŸŽ-logos" stroke="none" stroke-width="1" fill="none" fill-rule="evenodd">
        <g id="avatar-copy">
            <g id="Group" transform="translate(0.750000, 0.375000)">
                <g id="tail" transform="translate(213.312500, 284.180460)">
                    <path d="M10.421875,0.994228539 C10.421875,0.994228539 33.9375,50.8499439 31.921875,62.1505726 C29.90625,73.4512013 44.6757939,16.6472859 56.109375,8.97114296 C74.921875,-3.65897155 10.421875,0.994228539 10.421875,0.994228539 Z" id="Path-6" fill="#3458D0"></path>
                    <g id="tail-feathers" transform="translate(29.382565, 69.106622) rotate(5.000000) translate(-29.382565, -69.106622) translate(5.382565, 8.606622)">
                        <path d="M2.12760417,45.2169656 C1.34375003,58.3600881 -1.31500748,110.159452 2.91145817,117.117576 C7.13792381,124.075699 11.5338543,117.117577 11.5338543,113.251953 C11.5338543,109.386329 7.61458315,1.14884908 7.61458315,1.14884908 C7.61458315,1.14884908 2.91145831,32.0738431 2.12760417,45.2169656 Z" id="Path-7" fill="#3458D0"></path>
                        <path d="M9.18229166,76.9150845 C9.18229166,76.9150845 7.59248785,103.82374 11.5338541,107.840079 C15.4752203,111.856417 21.620063,108.613203 20.1562503,95.470081 C18.6924375,82.3269585 7.390625,0.664742863 7.390625,0.664742863 L9.18229166,76.9150845 Z" id="Path-8" fill="#FF686C"></path>
                        <path d="M12.3983807,40.7289934 C12.3983807,40.7289934 16.6173167,93.3415566 21.6649725,97.9421603 C26.7126283,102.542764 32.6362345,97.1430136 29.5259648,87.0955269 C27.2310648,79.6820295 10.7604764,15.5010129 10.7604764,15.5010129 C10.7604764,15.5010129 10.4048825,14.1081649 10.2270856,13.4117409 C9.31247364,9.82923953 7.48324971,2.66423677 7.48324971,2.66423677 L12.3983807,40.7289934 Z" id="Path-8-Copy" fill="#F49CB1"></path>
                        <path d="M22.9573925,62.9674031 C22.9573925,62.9674031 28.0664378,80.6943094 31.4009038,83.5551288 C34.7353698,86.4159482 42.4954356,84.8189795 36.9725084,72.8108221 C31.4495812,60.8026647 4.62687891,4.4339999 4.62687891,4.4339999 L22.9573925,62.9674031 Z" id="Path-8-Copy-2" fill="#009EE5" transform="translate(21.763865, 44.607170) rotate(4.000000) translate(-21.763865, -44.607170) "></path>
                        <path d="M17.2175247,30.39062 C17.2175247,30.39062 30.8897417,64.8250344 36.2460236,69.0623245 C41.6023055,73.2996147 48.6677148,67.1726023 41.7664548,60.0262797 C34.8651947,52.8799571 4.70434275,3.55871679 4.70434275,3.55871679 L17.2175247,30.39062 Z" id="Path-8-Copy-3" fill="#009EE5" transform="translate(24.667275, 37.006888) rotate(5.000000) translate(-24.667275, -37.006888) "></path>
                    </g>
                </g>
                <path d="M351.611272,128.607075 C354.463221,142.179784 356.610809,159.740523 354.75,178.151087 C350.71875,218.035659 354.75,210.723488 329.21875,245.290116 C303.6875,279.856745 250.967184,309.462987 232.244033,297.079266 C213.520883,284.695546 197.678217,196.633535 200.558701,183.561831 C203.093964,172.056751 244.67899,102.459192 254.610388,85.9421101 L236.5,73.9966826 L276.8125,27.2544574 L276.799819,27.6955584 C290.17378,10.9447094 312.277479,0 337.28125,0 C372.514979,0 401.990133,30.7095995 409.394873,54.5035371 C425.405229,53.10274 443.766724,52.6266431 462.249999,54.5089148 C514.470412,59.8268577 550.265635,68.0128652 550.265635,68.0128652 C550.265635,68.0128652 461.969537,63.3198097 410.17028,72.9918836 C405.100872,93.8710447 381.611054,121.567077 351.611272,128.607075 Z" id="body" fill="#3458D0"></path>
                <g id="wing---back" transform="translate(38.968750, 15.953829)">
                    <path d="M231.052457,67.3737045 C231.052457,67.3737045 87.271207,-14.3896677 14.036832,2.22890388 C-1.08856793,5.66120656 -2.97316767,14.9347443 3.55887224,27.4902783 C6.65005166,33.4319763 20.5252775,36.0678125 26.875,43.2082861 C32.3248314,49.3368023 29.8874013,59.8478177 37.0377465,66.4881202 C42.4300004,71.4957383 56.4474943,71.3178241 62.484375,76.4454292 C69.9004243,82.7444725 69.4646631,94.3608571 77.3873071,100.593644 C125.390167,138.357754 177.974332,172.403077 177.974332,172.403077 L231.052457,67.3737045 Z" id="Path-3" fill="#3458D0"></path>
                    <path d="M166.091809,153.509526 C151.476726,147.22678 114.649283,129.907843 77.3873071,100.593644 C69.4646631,94.3608571 69.9004243,82.7444725 62.484375,76.4454292 C56.4474943,71.3178241 42.4300004,71.4957383 37.0377465,66.4881202 C29.8874013,59.8478177 32.3248314,49.3368023 26.875,43.2082861 C20.5252775,36.0678125 6.65005166,33.4319763 3.55887224,27.4902783 C-2.97316767,14.9347443 -1.08856793,5.66120656 14.036832,2.22890388 C26.1878352,-0.528439459 40.2809407,-0.577402106 55.3371755,1.25917775 C53.6304304,1.53451699 51.9565991,1.8570865 50.318082,2.22890388 C35.1926821,5.66120656 33.3080823,14.9347443 39.8401222,27.4902783 C42.9313017,33.4319763 56.8065275,36.0678125 63.15625,43.2082861 C68.6060814,49.3368023 66.1686513,59.8478177 73.3189965,66.4881202 C78.7112504,71.4957383 92.7287443,71.3178241 98.765625,76.4454292 C106.181674,82.7444725 105.745913,94.3608571 113.668557,100.593644 C139.524296,120.934494 156.204251,140.128361 166.091809,153.509526 Z" id="red" fill="#FF686C"></path>
                    <path d="M181.898782,129.40018 L180.0625,135.607544 C180.0625,135.607544 161.671417,138.357754 113.668557,100.593644 C105.745913,94.3608571 106.181674,82.7444725 98.765625,76.4454292 C92.7287443,71.3178241 78.7112504,71.4957383 73.3189965,66.4881202 C66.1686513,59.8478177 68.6060814,49.3368023 63.15625,43.2082861 C56.8065275,36.0678125 42.9313017,33.4319763 39.8401222,27.4902783 C33.3080823,14.9347443 34.7410894,-0.415495165 50.3906256,0.664742871 C59.092685,1.26541854 68.6633718,2.89135135 78.6436743,5.22010247 C71.0526769,9.79227313 70.9910158,17.6289844 76.1213722,27.4902783 C79.2125517,33.4319763 93.0877775,36.0678125 99.4375,43.2082861 C104.887331,49.3368023 102.449901,59.8478177 109.600246,66.4881202 C114.9925,71.4957383 129.009994,71.3178241 135.046875,76.4454292 C142.462924,82.7444725 142.027163,94.3608571 149.949807,100.593644 C162.752876,110.665888 173.306075,120.456895 181.898782,129.40018 Z" id="pink" fill="#F49CB1"></path>
                </g>
                <g id="wing---back" transform="translate(0.000000, 102.370401)">
                    <path d="M234.621809,65.8095434 C234.621809,65.8095434 184.09375,95.7229723 145.125,99.0466866 C136.501474,99.7822026 128.894969,89.0083029 115.5625,87.7460579 C106.96484,86.9320786 89.9457483,94.5165807 80.625,93.0640008 C68.1311487,91.1169128 65.506768,81.8787103 53.75,79.1010332 C42.8723874,76.531067 31.1093671,82.0829621 22.7847667,79.1010313 C10.1915406,74.5900485 1.57650189,69.7721253 0.137433569,65.1448006 C-5.23756643,47.8614861 148.621809,0 185.574934,0 C222.528059,0 251.418684,7.97691436 251.418684,7.97691436 L234.621809,65.8095434 Z" id="Path-4" fill="#3458D0"></path>
                    <path d="M9.0513462,54.4728288 C12.7331534,56.4770949 17.3945468,58.4641431 22.7847667,60.3949581 C31.1093671,63.3768889 42.8723874,57.8249937 53.75,60.3949599 C65.506768,63.172637 68.1311487,72.4108395 80.625,74.3579276 C89.9457483,75.8105075 106.96484,68.2260053 115.5625,69.0399847 C128.894969,70.3022297 136.501474,81.0761293 145.125,80.3406133 C180.585268,77.3161437 211.594823,84.2767116 216.891163,85.5545925 L217.015625,86.4165757 C217.015625,86.4165757 184.09375,95.6296992 145.125,98.9534135 C136.501474,99.6889295 128.894969,88.9150298 115.5625,87.6527848 C106.96484,86.8388055 89.9457483,94.4233076 80.625,92.9707277 C68.1311487,91.0236397 65.506768,81.7854372 53.75,79.0077601 C42.8723874,76.4377939 31.1093671,81.989689 22.7847667,79.0077582 C10.1915406,74.4967754 1.57650189,69.6788522 0.137433569,65.0515275 C-0.740794995,62.2275832 2.63201464,58.5873015 9.05133261,54.4728375 Z" id="red" fill="#FF686C"></path>
                    <path d="M8.9231519,54.4028197 C11.2796821,53.0914832 35.2096033,40.151415 53.078126,45.2025131 C71.890626,50.520456 68.1311487,53.7980394 80.625,55.7451274 C89.9457483,57.1977073 106.96484,49.6132052 115.5625,50.4271845 C128.894969,51.6894295 143.892094,63.8860915 152.515621,63.1505755 C187.704253,60.1492742 212.483776,80.9974121 216.960077,85.0703523 L217.015625,85.7518328 C217.015625,85.7518328 184.09375,77.016899 145.125,80.3406133 C136.501474,81.0761293 128.894969,70.3022297 115.5625,69.0399847 C106.96484,68.2260053 89.9457483,75.8105075 80.625,74.3579276 C68.1311487,72.4108395 65.506768,63.172637 53.75,60.3949599 C42.8723874,57.8249937 31.1093671,63.3768889 22.7847667,60.3949581 C17.3317928,58.4416642 12.6247145,56.43082 8.9231519,54.4028197 Z" id="pink" fill="#F49CB1"></path>
                </g>
                <path d="M241.875,67.7984221 L276.841854,27.2544574 L276.829173,27.6955584 C290.203134,10.9447094 312.306833,0 337.310604,0 C372.544333,0 402.019488,30.7095995 409.424228,54.5035371 C425.434583,53.10274 443.796078,52.6266431 462.279354,54.5089148 C514.499766,59.8268577 550.294989,68.0128652 550.294989,68.0128652 C550.294989,68.0128652 461.998891,63.3198097 410.199634,72.9918836 C405.130226,93.8710447 381.640408,121.567077 351.640626,128.607075 C353.580494,137.8391 355.194484,148.916223 355.442827,160.850862 C335.288631,120.315318 312.447215,109.016998 283.560604,103.035144 C270.864615,100.406052 261.282629,93.2839132 254.529551,86.1253886 C254.566702,86.0635899 254.603433,86.0024953 254.639742,85.9421101 L253.911723,85.4619166 C245.723565,76.5543727 241.904354,67.803772 241.904354,67.803772 L241.875,67.7984221 Z" id="head" fill="#3458D0"></path>
                <g id="eye" transform="translate(319.812500, 25.260229)">
                    <ellipse id="Oval-2-Copy-2" fill="#000000" cx="32.25" cy="31.9076574" rx="32.25" ry="31.9076574"></ellipse>
                    <path d="M64.4980564,32.261636 C64.3298491,18.821136 53.2652263,7.97691436 39.640625,7.97691436 C25.9111713,7.97691436 14.78125,18.9886885 14.78125,32.5724003 C14.78125,46.1561121 25.9111713,57.1678862 39.640625,57.1678862 C51.7383028,57.1678862 61.8176479,48.6181089 64.0426628,37.2926009 C61.455895,52.3504202 48.2061974,63.8153149 32.25,63.8153149 C14.4388168,63.8153149 0,49.52977 0,31.9076574 C0,14.2855448 14.4388168,0 32.25,0 C50.0611832,0 64.5,14.2855448 64.5,31.9076574 C64.5,32.0258014 64.499351,32.1437953 64.4980564,32.261636 Z" id="Combined-Shape" fill="#FFFFFF"></path>
                    <ellipse id="Oval-6" fill="#FFFFFF" cx="47.03125" cy="39.8845718" rx="6.71875" ry="6.64742863"></ellipse>
                </g>
            </g>
        </g>
    </g>
</svg>